PathFileType	4	(X/Y/Z)	3_coords_data.trc
DataRate	CameraRate	NumFrames	NumMarkers	Units	OrigDataRate	OrigDataStartFrame	OrigNumFrames
30.0	30.0	9	21	m	30.0	10	48
Frame#	Time	THUMB_TIP	THUMB_IP	THUMB_MCP	THUMB_CMC	INDEX_TIP	INDEX_DIP	INDEX_PIP	INDEX_MCP	MIDDLE_TIP	MIDDLE_DIP	MIDDLE_PIP	MIDDLE_MCP	RING_TIP	RING_DIP	RING_PIP	RING_MCP	PINKY_TIP	PINKY_DIP	PINKY_PIP	PINKY_MCP	WRIST
X1	Y1	Z1	X2	Y2	Z2	X3	Y3	Z3	X4	Y4	Z4	X5	Y5	Z5	X6	Y6	Z6	X7	Y7	Z7	X8	Y8	Z8	X9	Y9	Z9	X10	Y10	Z10	X11	Y11	Z11	X12	Y12	Z12	X13	Y13	Z13	X14	Y14	Z14	X15	Y15	Z15	X16	Y16	Z16	X17	Y17	Z17	X18	Y18	Z18	X19	Y19	Z19	X20	Y20	Z20	X21	Y21	Z21
8	0.2999999999999987	0.5092842940982981	-0.0075860321193867986	-0.16420251567896532	0.4993462625887104	-0.01292540353874938	-0.14418435785761385	0.48051448690914333	-0.021591756579943278	-0.1209662926987799	0.47239383004478774	-0.029890940041072178	-0.07789578671185282	0.5782278131243643	0.020916930600189954	-0.16384376824327673	0.5626169527643298	0.018906821213392377	-0.15488494582776868	0.5414122502945606	0.01508153055444117	-0.1419335915532881	0.5084675649741066	0.0019818650448161224	-0.11833947011017865	0.5955475264395584	0.03158726624502539	-0.14664044030310597	0.5801820834009713	0.028386713354294102	-0.13760386897203303	0.5555372938798453	0.022668527975139408	-0.12313506613872927	0.5196505493389311	0.008057134053448878	-0.10089104098768376	0.6023269530354812	0.025211000684727147	-0.11417252915522369	0.5860504806072507	0.02573359674558573	-0.10643926731753628	0.5631643224731904	0.025017340085214834	-0.09664688654168552	0.527694815756738	0.011254136737935405	-0.08296444666741631	0.6001491993360791	0.015643713894491373	-0.08170382153106603	0.5839956920865184	0.016165703144137233	-0.07606540590594235	0.5637970254526294	0.014883545108155816	-0.07048132532058249	0.5306091648545067	0.0025456816500256663	-0.06360917244043574	0.4622830810018609	-0.023011742144276925	-0.051989820119430985
9	0.33333333333333187	0.509805272984479	-0.006784289340549976	-0.1637957108732624	0.4995924727325932	-0.012203445842995042	-0.14393793018615914	0.48059995380195786	-0.02112015332441408	-0.12094670245990957	0.4723670569992465	-0.029707835149345718	-0.0779541318097422	0.5784636784123988	0.0202952389853831	-0.16307356725492644	0.5626623650717736	0.018946410702267324	-0.1543271874910443	0.5412023351655386	0.015788058755188183	-0.14161885312332023	0.5079464019954949	0.0028942799210371906	-0.11835021606900187	0.5956481747208929	0.030866329643477575	-0.14629604787680356	0.5801215046097532	0.028241175179931077	-0.13735003874969204	0.5552505906486755	0.02322021786051076	-0.12300998378685335	0.5191320129052884	0.009034308786063483	-0.1008659948389149	0.6016937023272225	0.02419375741281693	-0.11456911963791971	0.5855228373616449	0.025607552866319216	-0.10672665136060355	0.5626800350937907	0.02578958204101589	-0.09680933171609885	0.5272551141540717	0.012125073600700365	-0.08291411601071319	0.5996710728581384	0.01467016305783242	-0.08291588568003339	0.5836926929990428	0.01590335369145368	-0.07690168432494049	0.5635669563137251	0.015207845645859752	-0.07096173395210315	0.5303725703471304	0.003173242864790371	-0.06360071994568917	0.462283081001861	-0.023011742144276925	-0.051989820119430985
10	0.3666666666666651	0.5102390930785571	-0.006024573256252497	-0.16341871301557814	0.4997828008550129	-0.011541238420422095	-0.14371510018944167	0.48065620036834933	-0.02068912930305533	-0.12092674249909918	0.47233282911922614	-0.029551052175702086	-0.07800730850878967	0.5785137005629781	0.01990772231336546	-0.16245644004987336	0.5625813121543605	0.019092081582422038	-0.1538835916437149	0.5409327084065635	0.016470879190723875	-0.14137451146999208	0.5074370848929501	0.0037280602007913055	-0.11836799361908512	0.5956163164548263	0.03031760716744414	-0.14604344664268848	0.5799731449904663	0.02817461406324151	-0.137172214085035	0.5549352171641387	0.02373247000650902	-0.12293216224724857	0.518627956604342	0.009923535030410657	-0.10085855659549958	0.601013926027185	0.02337617795116531	-0.11496186457241198	0.5849733411498816	0.025559471837352632	-0.10702884089914788	0.5621996411638462	0.026512349528445833	-0.09699736084624067	0.5268318824812819	0.012917859695267597	-0.08288947915026978	0.5991389345913988	0.013856320207013995	-0.08410421633942888	0.5833562586648586	0.015707545425696967	-0.07774181853769391	0.5633215561881438	0.01552207431878061	-0.07146580737310737	0.5301414795035201	0.003759392975781539	-0.06361690363910955	0.4622830810018609	-0.023011742144276925	-0.051989820119430985
11	0.39999999999999825	0.5105706475758605	-0.005341899956733953	-0.16309819230112577	0.49991300576382613	-0.010943013609134078	-0.14352672846064424	0.48068502881111275	-0.020311410331206647	-0.1209139434671106	0.4722870759340547	-0.02941295603436478	-0.07805923248584212	0.5784020480485467	0.01977959625432535	-0.16204449822986372	0.5623900124263933	0.019335613062811285	-0.1535936051314658	0.5406201061509115	0.01708887705996953	-0.1412229466570648	0.506963658488654	0.004456381103721596	-0.11839095877442274	0.595457171114243	0.02999476864961159	-0.14592171578077429	0.5797429692198577	0.028205585617419926	-0.13709773238891482	0.5545975364973289	0.024190374461903086	-0.12292046739973606	0.5181580995715911	0.010711186890416724	-0.10086084682394503	0.6003490912420871	0.02282329044126863	-0.11534531014433036	0.5844419282367909	0.02561518329318313	-0.10733484827085704	0.5617474150028485	0.02716434884098562	-0.09719881679004982	0.52645327200986	0.013592425312833223	-0.08288633286389391	0.598603772618727	0.013240710446517978	-0.08521432061112844	0.5830125516478111	0.015592579256979877	-0.07855229826544041	0.5630754515998453	0.015808369017773827	-0.07197373493774184	0.5299359839389874	0.004261605683194669	-0.06364718759504517	0.4622830810018609	-0.023011742144276925	-0.051989820119430985
12	0.43333333333333146	0.5107758155701271	-0.004772458679209501	-0.162855626380906	0.49997000917606194	-0.010439084844381608	-0.14338452224995923	0.48068193417422334	-0.020012868305172127	-0.12090936189526236	0.4722435281571262	-0.02930200995658594	-0.07810287697451013	0.5781333793347516	0.01997971092400508	-0.16189268186917066	0.5620895697607886	0.019717908702964637	-0.15349460864065734	0.5402689667180703	0.017645465769523305	-0.14118298420926145	0.5065565669709625	0.0050328843153713	-0.11842264619873133	0.5951824621648018	0.02998692911563383	-0.14595514299354884	0.5794393876632187	0.02839101724139137	-0.13714556465362487	0.5542506154377713	0.02461116521010276	-0.12298053650694996	0.5177617907110621	0.011319514169846334	-0.1008887823057204	0.5997546847601583	0.022614538416569907	-0.11572659743105385	0.5839577870366421	0.02580444967164819	-0.1076468394831015	0.5613385816824671	0.027737246163880958	-0.09740887943896825	0.5261368304872307	0.014117355225182426	-0.08291556658073485	0.5981166513086797	0.012894566876878955	-0.08618476708848033	0.5826864790730208	0.015597994057843678	-0.079285399997571	0.5628392020358199	0.01607848029561265	-0.07245409366686739	0.52975851950825	0.00466948849885418	-0.0637141393940106	0.4622830810018609	-0.023011742144276925	-0.051989820119430985
13	0.4666666666666647	0.5108296234064716	-0.00437307460810743	-0.16271621853927165	0.4999356443055407	-0.01009731673272507	-0.14331121218917653	0.4806358904277679	-0.019829695320060514	-0.1209143305470779	0.4722002136503253	-0.02924093373001735	-0.07813398518968917	0.5777353060798535	0.02046953289231701	-0.16204953392997073	0.5617080309837846	0.020176141544671955	-0.15362098871077334	0.5399119967951901	0.0180524410784193	-0.14127462799276197	0.5062417738804897	0.005387024123488016	-0.11848122113393245	0.5948270076221587	0.030222528003116422	-0.14618545184310933	0.5790973523530287	0.02865171557017987	-0.1373474377327526	0.5539296925971537	0.02490416328227374	-0.1231363749905815	0.5174594255839521	0.011704938810898402	-0.10095872817357199	0.5992985544806951	0.02270581124799298	-0.11613246630752061	0.5835707505557522	0.02607202254895369	-0.10798969005025827	0.5610065762441371	0.02815212044669746	-0.09765957827105387	0.5259132947992324	0.01442504525907995	-0.08300523290108897	0.59773830712325	0.012803872698155194	-0.08699154907221152	0.5824191460207645	0.01569512219621716	-0.07992302875632862	0.5626415017278437	0.01628418661922415	-0.0729009344584538	0.5296375959428389	0.0049162569475517115	-0.06382371963702094	0.4622830810018609	-0.023011742144276925	-0.051989820119430985
14	0.4999999999999978	0.5107528897905416	-0.004161678106091138	-0.16268055331482356	0.49983506596336635	-0.00991856719789852	-0.14329861969448016	0.480559082721441	-0.01975035619410337	-0.12092469748153056	0.4721768268557336	-0.029222357247595143	-0.07814726204362166	0.5772486592367487	0.021241372053777074	-0.1624792138727008	0.5612856219600525	0.020695322536963157	-0.15394204391843652	0.5395881301627787	0.018303355929871756	-0.14147179217848366	0.5060452155746552	0.005542854025622934	-0.11854411095936535	0.594454043239849	0.03066287452021088	-0.14655578053879192	0.5787747619005773	0.028953742166791696	-0.13765415129002695	0.5536872293637709	0.02504689828726603	-0.12334464982716342	0.5172916545272696	0.011859102699700141	-0.10103787729366576	0.599016387504321	0.023026866343065944	-0.11648518785810646	0.5833104882852929	0.02637608749851017	-0.10829327432257263	0.5607764960402203	0.028410871898849832	-0.09788852420817085	0.5257921403097591	0.014557518027833893	-0.08309324541225227	0.5975122969130936	0.012965593638374462	-0.08752100499236393	0.5822367401679659	0.01586919754340399	-0.08036373941890096	0.5624977658589266	0.016441399789915656	-0.07323229518815932	0.5295723255699327	0.005028302149634234	-0.06392960552176175	0.4622830810018608	-0.023011742144276925	-0.051989820119430985
15	0.533333333333331	0.5105960960805525	-0.004149520963291353	-0.16273432290994477	0.4997083685674948	-0.009910471288529843	-0.1433366725122408	0.48048389514533374	-0.01979771866679514	-0.12094287960166816	0.4721546966212834	-0.029246350826595435	-0.07814991520031189	0.5767202334746377	0.02216834791123068	-0.16310453415801895	0.5608643258462002	0.021188206256382847	-0.15440801096682982	0.5393259969246655	0.018348021852280794	-0.1417571780765226	0.5059683015014896	0.005470581102048788	-0.11862555967704835	0.5940786699783177	0.031252985695100044	-0.14703371450846886	0.5784810965097011	0.029271284284904886	-0.1380454687724011	0.5535164721984801	0.025049224454886776	-0.12361108988755332	0.5172522952232048	0.01177024590014708	-0.10114497945764822	0.5989112973216469	0.02351059338776207	-0.11678203283473665	0.5831820691325049	0.026684115187685542	-0.10856496888468059	0.5606547432287597	0.028491777222202308	-0.09810399739081765	0.5257663781526032	0.01450912368546875	-0.08320405724380697	0.597446508522929	0.013331621863493681	-0.08777871600392517	0.5821512218156372	0.016105823343187997	-0.08061226564884683	0.5624190622791515	0.016527672481780775	-0.07345154345545402	0.5295611776183143	0.0050058265625747556	-0.06404463465238786	0.4622830810018608	-0.023011742144276925	-0.051989820119430985
16	0.5666666666666642	0.5103962589400146	-0.00427825503557	-0.16284867816040854	0.4995775816678585	-0.010033466451757178	-0.1434107316732942	0.4804108832137002	-0.01991840781764953	-0.12096645390455696	0.4721396396338805	-0.0292896435114689	-0.07814523870444623	0.5762199652731438	0.023067988798016525	-0.16373507990535707	0.5604836955023824	0.021612527334619713	-0.15488909518739663	0.5391230558376859	0.018274840770269196	-0.14205972441119907	0.5059607772957125	0.005296269895748162	-0.11870472336303795	0.5937523699489258	0.03186187777140659	-0.1474764534435819	0.5782399786938158	0.029569795443485702	-0.1384148820483757	0.5534096241207971	0.024977832875952677	-0.12386232483129	0.5172823987751766	0.011569221367635829	-0.10125302039161777	0.5989125973161751	0.024053395925452636	-0.11699020955814421	0.5831383656498773	0.02698081545875053	-0.10876805471807716	0.5606034385499736	0.028490151178145795	-0.09827620334245302	0.5258027590684102	0.01435303170472979	-0.08331707921649378	0.5974879644678514	0.013847909422352034	-0.08780527610729816	0.5821285792459316	0.01638853484518521	-0.08068948324455039	0.5623808033626276	0.016586717705662224	-0.07356220534786317	0.5295762662953558	0.004930727706679794	-0.0641343903334699	0.4622830810018609	-0.023011742144276925	-0.051989820119430985
